<svg id="Layer_1" data-name="Layer 1" xmlns="http://www.w3.org/2000/svg" viewBox="0 0 181.21 96"><defs><style>.cls-1{fill:none;}.cls-2{fill:#43d451;}</style></defs><rect class="cls-1" width="181.21" height="96"/><path d="M44,47H55.74l.09,20.59A29.05,29.05,0,0,1,48,71.63c-10.43,3.54-25.84,1.92-33.95-9-1-1.39-6.78-9.44-4.63-19.78,2.78-13.39,16.25-18.29,17.46-18.71,10.15-3.5,21.78-.54,30,7.48L49,39.51a17.19,17.19,0,0,0-4.58-3.43,15.79,15.79,0,0,0-10.88-1.6A14.53,14.53,0,0,0,22.77,46.24a14.07,14.07,0,0,0,5.17,13,14.37,14.37,0,0,0,16,.89Z"/><path d="M75.08,70.81H62.87V22.69H74L91,50.22l16.22-27.44h10.69V70.54L106,70.48l.12-25.07L93.79,66.08H87.73L75.35,46Z"/><polygon points="140.22 43.66 159.05 24 173.96 24 154.3 45.51 174.44 72 158.75 72 145.39 54.71 140.22 59.7 140.22 43.66"/><polygon class="cls-2" points="117.97 22.9 117.97 32.99 127 32.99 127 71.25 140.78 71.25 140.78 22.9 117.97 22.9"/></svg>