<svg id="Group_10" data-name="Group 10" xmlns="http://www.w3.org/2000/svg" xmlns:xlink="http://www.w3.org/1999/xlink" width="144" height="48" viewBox="0 0 144 48">
  <defs>
    <linearGradient id="linear-gradient" x1="1.19" y1="0.264" x2="0.105" y2="0.82" gradientUnits="objectBoundingBox">
      <stop offset="0" stop-color="#11ffae"/>
      <stop offset="1" stop-color="#4782da"/>
    </linearGradient>
  </defs>
  <g id="MDI_dots-hexagon" data-name="MDI / dots-hexagon" opacity="0.6">
    <g id="Boundary" stroke="rgba(0,0,0,0)" stroke-width="1" opacity="0" fill="url(#linear-gradient)">
      <rect width="48" height="48" stroke="none"/>
      <rect x="0.5" y="0.5" width="47" height="47" fill="none"/>
    </g>
    <path id="Path_dots-hexagon" data-name="Path / dots-hexagon" d="M24.432,17.621a3.405,3.405,0,1,1,3.405,3.405,3.415,3.415,0,0,1-3.405-3.405m-10.216,0a3.405,3.405,0,1,1,3.405,3.405,3.415,3.415,0,0,1-3.405-3.405M4,17.621a3.405,3.405,0,1,1,3.405,3.405A3.415,3.415,0,0,1,4,17.621M19.324,27.837a3.405,3.405,0,1,1,3.405,3.405,3.415,3.415,0,0,1-3.405-3.405m-10.216,0a3.405,3.405,0,1,1,3.405,3.405,3.415,3.415,0,0,1-3.405-3.405M19.324,7.405a3.405,3.405,0,1,1,3.405,3.405,3.415,3.415,0,0,1-3.405-3.405m-10.216,0a3.405,3.405,0,1,1,3.405,3.405A3.415,3.415,0,0,1,9.108,7.405" transform="translate(6.379 6.379)" fill="url(#linear-gradient)"/>
  </g>
  <text id="P-ERP" transform="translate(56 34)" fill="#fff" font-size="28" font-family="Inter-Bold, Inter" font-weight="700" letter-spacing="0.024em"><tspan x="0" y="0">P-ERP</tspan></text>
</svg>
